<?xml version="1.0" encoding="utf-8"?>
<!-- Generator: Adobe Illustrator 22.1.0, SVG Export Plug-In . SVG Version: 6.00 Build 0)  -->
<svg version="1.1" xmlns="http://www.w3.org/2000/svg" xmlns:xlink="http://www.w3.org/1999/xlink" x="0px" y="0px"
	 viewBox="0 0 11.7 11.6" style="enable-background:new 0 0 11.7 11.6;" xml:space="preserve">
<g id="bug">
	<path d="M5.2,5C4,4.7,2.9,4.1,2.1,3.3l0,0C1.2,4.2,0.6,5.4,0.6,6.8c0,2.2,1.3,4,3.2,4.8h0c1.1-1.2,1.7-2.8,1.7-4.5
		C5.5,6.4,5.4,5.7,5.2,5z"/>
	<path d="M9.6,3.2L9.6,3.2C8.7,4.1,7.7,4.7,6.5,5C6.3,5.7,6.2,6.4,6.2,7.1c0,1.7,0.6,3.3,1.7,4.5h0C9.7,10.8,11,9,11,6.8
		C11,5.4,10.5,4.2,9.6,3.2z"/>
	<path d="M8.6,2.4C8.2,2.2,7.8,2,7.3,1.8l1-1.3c0.1-0.1,0.1-0.4-0.1-0.5C8.1,0,7.9,0,7.8,0.1L6.6,1.7c-0.2,0-0.5-0.1-0.8-0.1
		c-0.3,0-0.5,0-0.8,0.1l0,0L3.8,0.1C3.7,0,3.5,0,3.4,0.1C3.2,0.2,3.2,0.4,3.3,0.5l1,1.3C3.9,2,3.5,2.2,3.1,2.4l0,0
		c0.6,0.9,1.6,1.4,2.8,1.4S8,3.3,8.6,2.4z"/>
</g>
<g id="dragon">
	<path d="M6,2.2L7.2,0L1.1,6.1C0.8,6.3,1,6.7,1.4,6.7l4.6-1c1.1,0,2,0.9,2,2c0,1.1-0.9,2-2,2C5.5,9.6,3.7,9.7,2,8
		c-0.1-0.1-0.4,0-0.3,0.2c0.2,1,0.9,2.9,3.1,3.4c2.8,0.6,5.7-1.4,5.9-4.2C10.9,4.5,8.7,2.2,6,2.2z M3.5,5.5C3.3,5.5,3,5.4,2.9,5.3
		l0,0L4.2,4l0,0l0,0l0,0c0.1,0.2,0.2,0.4,0.2,0.6C4.4,5.1,4,5.5,3.5,5.5z"/>
</g>
<g id="electric">
	<path d="M2.1,4.3h1.9c0.2,0,0.3-0.2,0.3-0.4L3.1,0.4C3.1,0.2,3.2,0,3.4,0h3.9c0.1,0,0.2,0.1,0.2,0.2l2.3,6.4C9.8,6.8,9.7,7,9.5,7
		H6.8C6.7,7,6.5,7.1,6.6,7.3l1,4c0.1,0.3-0.3,0.5-0.5,0.2L1.9,4.7C1.8,4.5,1.9,4.3,2.1,4.3z"/>
</g>
<g id="fairy">
	<path d="M11.6,5.8l-3-1.7l0.5-1.6L7.5,3L5.8,0L4.2,3L2.6,2.6L3,4.2L0,5.8l3,1.7L2.6,9.1l1.6-0.5l1.7,3l1.7-3l1.6,0.5L8.6,7.5
		L11.6,5.8z M6.4,6.4l-0.6,1l-0.6-1l-1-0.6l1-0.6l0.6-1l0.6,1l1,0.6L6.4,6.4z"/>
</g>
<g id="fighting">
	<path d="M2.5,6.4V1.2c0-0.6,0.4-1.2,1-1.2c0.6,0,1.1,0.3,1.2,0.9C5,0.5,5.4,0.2,5.8,0.2C6.5,0.2,7,0.7,7,1.3c0,0,0,0.1,0,0.1
		C7.2,1.1,7.5,1,7.9,1c0.6,0,1.2,0.5,1.2,1.2c0,0,0,0,0,0c0.2-0.3,0.6-0.4,1-0.4C10.6,1.9,11,2.4,11,2.9v3.4c0,2.8-2.2,5.2-5,5.3
		C3,11.7,0.7,9.4,0.7,6.5h0c0-0.9,0.4-1.8,1-2.4c0.1-0.2,0.4,0,0.4,0.2C2.1,4.8,2.1,6.4,2.5,6.4z"/>
</g>
<g id="fire">
	<path d="M8.4,11.1c-0.7,0.4-1.4,0.6-2.2,0.6c-2.6,0-4.7-2.1-4.7-4.7c0-0.7,0.2-1.4,0.5-2c0,0,0,1.3,0.6,1.8c0,0-0.2-0.6,0.4-1.6
		s2.8-2,3.1-2.9S6.1,0.4,5.7,0c0,0,1.1,0.6,1.2,1.9c0.1,1.3-0.4,2.6,0.4,3c0.6,0.3,1.2,0,1.3-0.6c0-0.4-0.1-1.1-0.6-1.6
		c0,0,2.2,1.4,2.2,3.8c0,3.1-2.5,3.9-2.5,3.9c1.2-1.6,0.2-3.2,0.2-3.2c0,1.6-1.4,2-1.4,2C7,9,7.4,8.5,7.4,7.9c0-0.8-0.6-1.4-1.4-1.4
		S4.5,7.1,4.5,7.9c0,0.2,0.2,0.6,0.2,0.6C4,8.2,4.2,7.3,4.2,7.3C4.1,7.6,4.1,7.8,4.1,8.1c0,1.8,1.4,3.2,3.2,3.2
		C7.7,11.3,8,11.3,8.4,11.1"/>
</g>
<g id="flying">
	<path d="M4,2.9C1.8,3,0,4.7,0,6.9s1.8,4,4,4c1.5,0,2.7-0.8,3.4-1.9c0,0-0.9,0.3-1.7,0.4C5.5,9.4,5.3,9.3,5.3,9
		c0-0.2,0.1-0.5,0.3-0.5c0,0,2.4-0.5,3.5-1.8c0,0-1.4,0.7-3.2,0.8c-0.2,0-0.5-0.1-0.5-0.3c0-0.2,0.1-0.5,0.3-0.5
		c0,0,3.1-0.5,4.9-2.7c0,0-1.7,1.3-4.6,1.4c-0.2,0-0.5-0.1-0.5-0.3s0.1-0.5,0.3-0.5c0,0,3.5-0.4,5.7-4C11.6,0.7,9.2,2.5,4,2.9z"/>
</g>
<g id="ghost">
	<path d="M10,9.6C10,9.5,10,9.5,10,9.6c1-1,1.5-2.4,1.5-3.9C11.5,2.5,9,0,5.8,0S0.2,2.5,0.2,5.7c0,2.4,1.5,4.5,3.6,5.3h0
		c0,0,3.3,1.6,7.5-0.2C11.3,10.7,9.3,10.7,10,9.6z M3.9,6.2c-0.7,0-1.3-0.6-1.3-1.3c0-0.5,0.3-1,0.8-1.2c0.2,0.8,1,1.3,1.8,1.3
		c0,0,0,0,0.1,0C5.1,5.7,4.6,6.2,3.9,6.2z M7.3,6.2C6.6,6.2,6.1,5.7,6,5c0,0,0,0,0.1,0c0.8,0,1.6-0.6,1.8-1.3
		c0.5,0.2,0.8,0.7,0.8,1.2C8.6,5.6,8,6.2,7.3,6.2z"/>
</g>
<g id="grass">
	<path d="M11.1,0.1c0,0-4.1-0.6-7.7,1.4l0,0c-1.8,0.9-3,2.7-3,4.8c0,1.4,0.5,2.7,1.4,3.6l2-2.2L4,4.3l0.6,2.7l1-1.1l0.1-2.7l0.5,2.1
		l2.9-3.1L6.7,5.5l2.1,0.1L6.2,6.1L5.3,7.3l2.8,0.1L4.7,8.2l-1.8,2.5c0.8,0.6,1.8,0.9,2.9,0.9c2.5,0,4.5-1.6,5.2-3.9l0,0
		c0,0,0,0,0-0.1C11,7.4,11,7.1,11.1,6.8C11.5,3.9,11.1,0.1,11.1,0.1z"/>
</g>
<g id="ground">
	<polygon points="8.8,1.5 5.6,1.5 2.7,10.1 11.6,10.1 	"/>
	<polygon points="2,4.2 0,10.1 1.6,10.1 3.6,4.2 	"/>
</g>
<g id="ice">
	<path d="M0.1,5.7l2.2-1.3c0.1,0,0.1,0,0.2,0l2.3,1.3c0.1,0.1,0.1,0.3,0,0.3L2.5,7.3c-0.1,0-0.1,0-0.2,0L0.1,6C0,5.9,0,5.7,0.1,5.7z
		"/>
	<path d="M6.8,5.7l2.2-1.3c0.1,0,0.1,0,0.2,0l2.3,1.3c0.1,0.1,0.1,0.3,0,0.3L9.3,7.3c-0.1,0-0.1,0-0.2,0L6.8,6
		C6.7,5.9,6.7,5.7,6.8,5.7z"/>
	<path d="M2.8,10.7l0-2.6c0-0.1,0-0.1,0.1-0.2l2.3-1.3c0.1-0.1,0.3,0,0.3,0.2l0,2.6c0,0.1,0,0.1-0.1,0.2l-2.3,1.2
		C3,10.9,2.8,10.8,2.8,10.7z"/>
	<path d="M6.2,4.9l0-2.6c0-0.1,0-0.1,0.1-0.2l2.3-1.3c0.1-0.1,0.3,0,0.3,0.2l0,2.6c0,0.1,0,0.1-0.1,0.2L6.5,5C6.4,5.1,6.2,5,6.2,4.9
		z"/>
	<path d="M8.5,10.8L6.3,9.6c-0.1,0-0.1-0.1-0.1-0.2l0-2.6c0-0.2,0.2-0.2,0.3-0.2l2.3,1.3C8.8,8,8.9,8,8.9,8.1l0,2.6
		C8.8,10.8,8.7,10.9,8.5,10.8z"/>
	<path d="M5.2,5L2.9,3.8c-0.1,0-0.1-0.1-0.1-0.2l0-2.6c0-0.2,0.2-0.2,0.3-0.2l2.3,1.3c0.1,0,0.1,0.1,0.1,0.2l0,2.6
		C5.4,5,5.3,5.1,5.2,5z"/>
</g>
<g id="normal">
	<path d="M5.8,0C2.6,0,0,2.6,0,5.8s2.6,5.8,5.8,5.8s5.8-2.6,5.8-5.8S9,0,5.8,0z M5.8,9.1C4,9.1,2.5,7.6,2.5,5.8S4,2.5,5.8,2.5
		S9.1,4,9.1,5.8S7.6,9.1,5.8,9.1z"/>
</g>
<g id="poison">
	<path d="M11.6,5c0-2.6-2.6-4.8-5.8-4.8S0,2.4,0,5c0,1.5,0.8,2.8,2,3.6v1.8c0,0.5,0.4,1,1,1s1-0.4,1-1C4,10.2,4.2,10,4.4,10
		c0.2,0,0.4,0.2,0.4,0.4c0,0.5,0.4,1,1,1s1-0.4,1-1C6.8,10.2,7,10,7.2,10c0.2,0,0.4,0.2,0.4,0.4c0,0.5,0.4,1,1,1s1-0.4,1-1V8.6
		C10.8,7.8,11.6,6.5,11.6,5z M5.8,2.2c1.9,0,3.5,1.3,3.5,2.9S7.7,7.9,5.8,7.9S2.4,6.6,2.4,5S3.9,2.2,5.8,2.2z"/>
</g>
<g id="psychic">
	<path d="M6.4,5.8C6.2,5.7,5.9,5.9,6,6.1c0.1,0.2,0.2,0.4,0.5,0.6c0.8,0.5,2-0.2,2-1.2c0-1-0.8-2.9-3.3-2.1S2.8,8.2,6,9.2
		s6.8-2.3,4.7-6.6C8.6-1.6,0.1-0.9,0.3,5.8c0.2,6.1,6.6,6.8,9.9,4.8c0.2-0.1,0.1-0.4-0.1-0.3c-0.9,0.2-2.5,0.4-4,0.1
		c-1.9-0.4-3.7-2.6-3.5-4.7s1.5-3.1,2.7-3.4c1.5-0.3,3.3,0.1,3.9,2c0.6,1.8-1.2,3.9-3,2.9c-1.8-1-0.9-2.9,0.5-2.7
		c1.4,0.2,0.9,1.5,0.3,1.5C6.7,6,6.6,6,6.4,5.8z"/>
</g>
<g id="rock">
	<polygon points="9,1.3 3.7,1.3 0,5.9 0,8.7 2.7,9.4 8.2,5.5 	"/>
	<polygon points="4,9.7 6.5,10.3 9.8,8.1 8.6,6.5 	"/>
	<polygon points="10.2,1.3 9.3,5.8 10.5,7.6 11.6,6.8 	"/>
</g>
<g id="steel">
	<path d="M8.2,0.7H3.4c-0.4,0-0.7,0.2-0.8,0.5L0.1,5.3C0,5.6,0,6,0.1,6.3l2.4,4.2C2.7,10.8,3.1,11,3.4,11h4.8c0.4,0,0.7-0.2,0.8-0.5
		l2.4-4.2c0.2-0.3,0.2-0.7,0-1L9.1,1.1C8.9,0.8,8.6,0.7,8.2,0.7z M6.4,8.3C4.6,8.7,2.9,7.1,3.3,5.2c0.2-0.9,1-1.7,1.9-1.9
		c1.8-0.4,3.5,1.2,3.1,3.1C8.1,7.3,7.3,8.1,6.4,8.3z"/>
</g>
<g id="water">
	<path d="M9.7,6.6L9.7,6.6C9.7,6.5,9.7,6.5,9.7,6.6c0-0.1-0.1-0.2-0.1-0.3C8.8,3.9,5.8,0,5.8,0s-3,3.9-3.8,6.2C2,6.3,2,6.4,2,6.5
		c0,0,0,0,0,0l0,0C1.9,6.9,1.8,7.2,1.8,7.6c0,2.2,1.8,4,4,4s4-1.8,4-4C9.8,7.2,9.8,6.9,9.7,6.6z M7.9,9.3L7.9,9.3
		c-0.5,0.6-1.2,1.1-2,1.1c-1.3,0-2.3-0.9-2.5-2.2l0,0v0c0,0,0,0,0,0c0-0.3,0.3-0.6,0.6-0.6c0.3,0,0.6,0.2,0.6,0.5l0,0
		c0.1,0.6,0.6,1.1,1.3,1.2c0.6,0.1,1.1-0.1,1.5-0.5l0,0l0,0l0,0c0.1-0.1,0.2-0.1,0.3-0.1c0.2,0,0.4,0.2,0.4,0.4
		C7.9,9.2,7.9,9.2,7.9,9.3z"/>
</g>
</svg>
