<?xml version="1.0" encoding="utf-8"?>
<!-- Generator: Adobe Illustrator 22.1.0, SVG Export Plug-In . SVG Version: 6.00 Build 0)  -->
<svg version="1.1" xmlns="http://www.w3.org/2000/svg" xmlns:xlink="http://www.w3.org/1999/xlink" x="0px" y="0px"
	 viewBox="0 0 20.7 20.6" style="enable-background:new 0 0 20.7 20.6;" xml:space="preserve">
<g id="bug">
	<path d="M9.1,8.9c-2.1-0.6-4-1.7-5.4-3.1L3.6,5.7C2,7.4,1.1,9.6,1.1,12.1c0,3.8,2.3,7.1,5.6,8.5h0c1.9-2.1,3-4.9,3-8
		C9.7,11.3,9.5,10.1,9.1,8.9z"/>
	<path d="M17,5.7L17,5.7c-1.5,1.6-3.4,2.7-5.5,3.2c-0.4,1.2-0.6,2.4-0.6,3.7c0,3.1,1.1,5.8,3,8h0c3.3-1.4,5.6-4.7,5.6-8.5
		C19.6,9.6,18.6,7.4,17,5.7z"/>
	<path d="M15.2,4.2c-0.7-0.4-1.4-0.8-2.2-1L14.8,1c0.2-0.2,0.2-0.6-0.1-0.8C14.4-0.1,14,0,13.8,0.2L11.7,3c-0.4-0.1-0.9-0.1-1.4-0.1
		C9.9,2.9,9.4,2.9,9,3l0,0L6.8,0.2C6.6,0,6.2-0.1,6,0.1C5.7,0.3,5.7,0.7,5.9,1l1.8,2.3c-0.8,0.2-1.6,0.6-2.2,1l0,0
		c1.1,1.5,2.9,2.5,4.9,2.5S14.1,5.8,15.2,4.2z"/>
</g>
<g id="dragon">
	<path d="M10.6,3.9L12.7,0L1.9,10.8c-0.4,0.4,0,1.1,0.5,1l8.2-1.8c2,0,3.5,1.6,3.5,3.5c0,2-1.6,3.5-3.5,3.5c-0.9,0-4.1,0.2-7.2-3
		c-0.2-0.2-0.6,0-0.6,0.3c0.4,1.8,1.6,5.1,5.6,6c5,1.1,10-2.4,10.4-7.5C19.3,8,15.4,3.9,10.6,3.9z M6.2,9.7c-0.4,0-0.8-0.1-1-0.4
		l0,0L7.4,7l0,0l0,0l0,0c0.2,0.3,0.4,0.6,0.4,1C7.8,9,7.1,9.7,6.2,9.7z"/>
</g>
<g id="electric">
	<path d="M3.8,7.5h3.4c0.3,0,0.6-0.3,0.5-0.6L5.6,0.6C5.5,0.3,5.7,0,6,0h6.8c0.2,0,0.4,0.1,0.4,0.3l4,11.4c0.1,0.3-0.1,0.6-0.4,0.6
		h-4.8c-0.3,0-0.5,0.3-0.5,0.6l1.7,7.1c0.1,0.5-0.5,0.8-0.8,0.4L3.4,8.3C3.2,8,3.4,7.5,3.8,7.5z"/>
</g>
<g id="fairy">
	<path d="M20.6,10.3l-5.3-2.9l0.8-2.8l-2.8,0.8L10.3,0L7.4,5.4L4.5,4.5l0.8,2.8L0,10.3l5.3,2.9l-0.8,2.8l2.8-0.8l2.9,5.3l2.9-5.3
		l2.8,0.8l-0.8-2.8L20.6,10.3z M11.3,11.3l-1,1.8l-1-1.8l-1.8-1l1.8-1l1-1.8l1,1.8l1.8,1L11.3,11.3z"/>
</g>
<g id="fighting">
	<path d="M4.5,11.3V2.2c0-1.1,0.8-2.1,1.9-2.1c1-0.1,1.9,0.6,2.1,1.5c0.3-0.7,1-1.2,1.9-1.2c1.1,0,2,0.9,2,2c0,0.1,0,0.1,0,0.2
		c0.4-0.5,1-0.9,1.7-0.9c1.1,0,2.1,0.9,2.1,2.1c0,0,0,0.1,0,0.1c0.4-0.5,1.1-0.8,1.8-0.7c0.9,0.2,1.5,1,1.5,1.9v6.1
		c0,5-3.9,9.3-8.9,9.4c-5.1,0.1-9.3-4-9.3-9.1h0c0-1.7,0.7-3.2,1.8-4.3C3.2,7,3.7,7.2,3.7,7.5C3.7,8.5,3.8,11.3,4.5,11.3z"/>
</g>
<g id="fire">
	<path d="M14.9,19.6c-1.2,0.6-2.5,1-3.9,1c-4.6,0-8.4-3.7-8.4-8.4c0-1.3,0.3-2.5,0.8-3.6c0,0,0,2.2,1,3.2c0,0-0.3-1.1,0.8-2.9
		s5-3.5,5.4-5.1s0.2-3.2-0.5-3.9c0,0,2,1,2.1,3.3c0.1,2.3-0.7,4.6,0.6,5.3c1,0.6,2.2,0,2.3-1c0.1-0.7-0.2-1.9-1.1-2.8
		c0,0,4,2.4,4,6.7c0,5.6-4.4,6.9-4.4,6.9c2.1-2.9,0.4-5.6,0.4-5.6c0,2.9-2.4,3.5-2.4,3.5c0.8-0.4,1.4-1.3,1.4-2.3
		c0-1.4-1.1-2.6-2.6-2.6S8,12.6,8,14c0,0.4,0.3,1.1,0.3,1.1C7.2,14.5,7.4,13,7.4,13c-0.1,0.5-0.2,0.9-0.2,1.4c0,3.1,2.6,5.7,5.7,5.7
		c0.7,0,1.4-0.1,2-0.4"/>
</g>
<g id="flying">
	<path d="M7.2,5.1C3.2,5.4,0,8.3,0,12.2s3.2,7.2,7.2,7.2c2.6,0,4.9-1.4,6.1-3.4c0,0-1.5,0.5-3.1,0.6c-0.4,0-0.8-0.2-0.9-0.6
		c-0.1-0.4,0.2-0.8,0.6-0.9c0,0,4.2-0.9,6.2-3.1c0,0-2.6,1.2-5.7,1.5c-0.4,0-0.8-0.2-0.9-0.6c-0.1-0.4,0.2-0.8,0.6-0.9
		c0,0,5.6-0.9,8.7-4.9c0,0-3.1,2.2-8.1,2.6c-0.4,0-0.8-0.2-0.9-0.6C9.8,8.7,10,8.3,10.5,8.2c0,0,6.1-0.7,10.2-7
		C20.6,1.2,16.3,4.4,7.2,5.1z"/>
</g>
<g id="ghost">
	<path d="M17.6,16.9C17.6,16.9,17.6,16.9,17.6,16.9c1.7-1.8,2.7-4.2,2.7-6.9c0-5.6-4.5-10.1-10-10.1s-10,4.5-10,10
		c0,4.3,2.7,7.9,6.4,9.4h0c0,0,5.8,2.9,13.4-0.4C20.1,19,16.4,18.9,17.6,16.9z M6.9,11.1c-1.3,0-2.3-1-2.3-2.3c0-1,0.6-1.7,1.4-2.1
		C6.4,8,7.6,9,9.1,9c0,0,0.1,0,0.1,0C9.1,10.1,8.1,11.1,6.9,11.1z M13,11.1c-1.2,0-2.2-0.9-2.3-2.1c0,0,0.1,0,0.1,0
		c1.5,0,2.8-1,3.2-2.4c0.8,0.4,1.4,1.2,1.4,2.1C15.3,10,14.3,11.1,13,11.1z"/>
</g>
<g id="grass">
	<path d="M19.7,0.2c0,0-7.2-1-13.6,2.4l0,0c-3.2,1.5-5.3,4.8-5.3,8.5c0,2.5,1,4.7,2.5,6.4l3.6-3.8L7,7.6l1.1,4.7l1.9-2l0.2-4.7
		l0.8,3.6l5.2-5.4l-4.3,5.9l3.7,0.1l-4.6,1L9.4,13l4.9,0.2l-6.1,1.4L5,19.1c1.5,1,3.3,1.5,5.2,1.5c4.3,0,8-2.9,9.1-6.9l0,0
		c0,0,0-0.1,0-0.1c0.1-0.5,0.2-1,0.3-1.5C20.4,6.9,19.7,0.2,19.7,0.2z"/>
</g>
<g id="ground">
	<polygon points="15.6,2.7 9.9,2.7 4.9,17.9 20.6,17.9 	"/>
	<polygon points="3.5,7.5 0,17.9 2.8,17.9 6.3,7.5 	"/>
</g>
<g id="ice">
	<path d="M0.2,10l3.9-2.3c0.1-0.1,0.2-0.1,0.4,0l4,2.3c0.2,0.1,0.2,0.5,0,0.6l-4,2.3C4.4,13,4.2,13,4.1,13l-3.9-2.3
		C0,10.5,0,10.2,0.2,10z"/>
	<path d="M12.1,10l3.9-2.3c0.1-0.1,0.2-0.1,0.4,0l4,2.3c0.2,0.1,0.2,0.5,0,0.6l-4,2.3c-0.1,0.1-0.2,0.1-0.4,0l-3.9-2.3
		C11.9,10.5,11.9,10.2,12.1,10z"/>
	<path d="M5,18.9l-0.1-4.6c0-0.1,0.1-0.2,0.2-0.3l4.1-2.3c0.2-0.1,0.5,0,0.5,0.3l0,4.7c0,0.1-0.1,0.2-0.2,0.3l-4,2.2
		C5.3,19.4,5,19.2,5,18.9z"/>
	<path d="M11,8.6L10.9,4c0-0.1,0.1-0.2,0.2-0.3l4.1-2.3c0.2-0.1,0.5,0,0.5,0.3l0,4.7c0,0.1-0.1,0.2-0.2,0.3l-4,2.2
		C11.3,9,11,8.9,11,8.6z"/>
	<path d="M15.1,19.2l-4-2.2c-0.1-0.1-0.2-0.2-0.2-0.3l0-4.7c0-0.3,0.3-0.4,0.5-0.3l4.1,2.3c0.1,0.1,0.2,0.2,0.2,0.3l-0.1,4.6
		C15.6,19.2,15.4,19.3,15.1,19.2z"/>
	<path d="M9.2,8.9l-4-2.2C5,6.6,5,6.5,5,6.3l0-4.7c0-0.3,0.3-0.4,0.5-0.3l4.1,2.3C9.7,3.8,9.7,3.9,9.7,4L9.6,8.6
		C9.7,8.8,9.4,9,9.2,8.9z"/>
</g>
<g id="normal">
	<path d="M10.3,0C4.6,0,0,4.6,0,10.3s4.6,10.3,10.3,10.3S20.6,16,20.6,10.3S16,0,10.3,0z M10.3,16.2c-3.2,0-5.8-2.6-5.8-5.8
		s2.6-5.8,5.8-5.8s5.8,2.6,5.8,5.8S13.5,16.2,10.3,16.2z"/>
</g>
<g id="poison">
	<path d="M20.6,8.9c0-4.7-4.6-8.5-10.3-8.5S0,4.2,0,8.9c0,2.6,1.4,4.9,3.6,6.4v3.1c0,1,0.8,1.7,1.7,1.7s1.7-0.8,1.7-1.7
		c0-0.4,0.3-0.7,0.7-0.7s0.7,0.3,0.7,0.7c0,1,0.8,1.7,1.7,1.7s1.7-0.8,1.7-1.7c0-0.4,0.3-0.7,0.7-0.7c0.4,0,0.7,0.3,0.7,0.7
		c0,1,0.8,1.7,1.7,1.7s1.7-0.8,1.7-1.7v-3.1C19.2,13.8,20.6,11.5,20.6,8.9z M10.3,3.8c3.4,0,6.1,2.3,6.1,5.1s-2.7,5.1-6.1,5.1
		s-6.1-2.3-6.1-5.1S6.9,3.8,10.3,3.8z"/>
</g>
<g id="psychic">
	<path d="M11.4,10.4c-0.4-0.3-0.9,0.1-0.7,0.5c0.1,0.4,0.4,0.7,0.9,1c1.5,0.8,3.5-0.4,3.6-2.1C15.2,8,13.8,4.6,9.3,6
		s-4.4,8.6,1.4,10.3s12-4,8.3-11.6C15.3-2.8,0.2-1.6,0.5,10.3c0.4,10.8,11.8,12,17.5,8.6c0.3-0.2,0.1-0.6-0.2-0.6
		c-1.6,0.4-4.4,0.7-7.1,0.2C7.3,18,4.1,14,4.5,10.3s2.7-5.5,4.7-5.9c2.6-0.6,5.8,0.2,6.9,3.5c1.1,3.2-2.2,6.9-5.3,5.2
		c-3.1-1.8-1.6-5.1,0.9-4.8c2.6,0.3,1.6,2.7,0.5,2.6C11.9,10.7,11.6,10.6,11.4,10.4z"/>
</g>
<g id="rock">
	<polygon points="15.9,2.3 6.5,2.3 0,10.4 0,15.5 4.7,16.6 14.5,9.8 	"/>
	<polygon points="7.1,17.1 11.5,18.3 17.5,14.4 15.3,11.5 	"/>
	<polygon points="18.1,2.3 16.4,10.3 18.6,13.4 20.6,12.1 	"/>
</g>
<g id="steel">
	<path d="M14.6,1.2H6C5.4,1.2,4.9,1.5,4.5,2L0.3,9.5c-0.3,0.5-0.3,1.2,0,1.7l4.3,7.4c0.3,0.5,0.9,0.9,1.5,0.9h8.6
		c0.6,0,1.2-0.3,1.5-0.9l4.3-7.4c0.3-0.5,0.3-1.2,0-1.7L16.1,2C15.8,1.5,15.2,1.2,14.6,1.2z M11.4,14.7c-3.3,0.7-6.2-2.1-5.4-5.4
		c0.4-1.7,1.7-3,3.4-3.4c3.3-0.7,6.1,2.2,5.4,5.4C14.3,13,13,14.3,11.4,14.7z"/>
</g>
<g id="water">
	<path d="M17.2,11.6L17.2,11.6C17.2,11.6,17.2,11.6,17.2,11.6c-0.1-0.2-0.1-0.4-0.2-0.6c-1.4-4.1-6.7-11-6.7-11S5.1,6.9,3.6,11
		c-0.1,0.2-0.1,0.3-0.2,0.5c0,0,0,0.1,0,0.1l0,0c-0.2,0.6-0.2,1.2-0.2,1.9c0,3.9,3.2,7.1,7.1,7.1s7.1-3.2,7.1-7.1
		C17.4,12.8,17.4,12.2,17.2,11.6z M13.9,16.4L13.9,16.4c-0.8,1.1-2.1,1.9-3.6,1.9c-2.2,0-4.1-1.7-4.4-3.8l0,0v0c0,0,0,0,0,0
		c0-0.6,0.5-1.1,1.1-1.1c0.5,0,1,0.4,1.1,0.9l0,0c0.2,1.1,1.1,2,2.2,2.2c1,0.2,2-0.2,2.6-0.9l0,0l0,0l0,0c0.1-0.1,0.3-0.2,0.5-0.1
		c0.4,0,0.6,0.4,0.6,0.7C14,16.3,14,16.4,13.9,16.4z"/>
</g>
</svg>
